<svg width="1894" height="284" viewBox="0 0 1894 284" fill="none" xmlns="http://www.w3.org/2000/svg">
<path fill-rule="evenodd" clip-rule="evenodd" d="M129 152V184H120.5H119V184.132C115.021 184.84 112 188.317 112 192.5C112 196.683 115.021 200.16 119 200.868V201H120.5H129V275.227C135.848 280.716 144.541 284 154 284C176.091 284 194 266.091 194 244C194 243.128 193.972 242.262 193.917 241.404C212.712 238.128 227 221.732 227 202C227 193.693 224.468 185.978 220.134 179.584C231.93 175.818 240.554 164.953 240.983 152.013L241 152H240.984H192.353C189.877 162.325 180.585 170 169.5 170C158.415 170 149.123 162.325 146.647 152H129Z" fill="#97B802"/>
<path fill-rule="evenodd" clip-rule="evenodd" d="M112 214.778V275.227C105.152 280.716 96.4595 284 87 284C64.9086 284 47 266.091 47 244C47 243.128 47.0279 242.262 47.0829 241.404C28.2882 238.128 14 221.732 14 202C14 193.693 16.5319 185.978 20.8662 179.584C9.07041 175.818 0.445915 164.953 0.0167652 152.013L0 152H0.0163527H59.9836H63V144.5V143H63.1319C63.8404 139.021 67.3174 136 71.5 136C75.6826 136 79.1596 139.021 79.8681 143H80V144.5V152H112V170.222C102.699 173.352 96 182.144 96 192.5C96 202.856 102.699 211.648 112 214.778Z" fill="#FFC502"/>
<path fill-rule="evenodd" clip-rule="evenodd" d="M129 73.2222V12.7731C135.848 7.28359 144.541 4 154 4C176.091 4 194 21.9086 194 44C194 44.8721 193.972 45.7377 193.917 46.5959C212.712 49.8723 227 66.2676 227 86C227 94.3065 224.468 102.022 220.134 108.416C231.93 112.182 240.554 123.047 240.983 135.987L241 136H240.984H181.016H178V143.5V145H177.868C177.16 148.979 173.683 152 169.5 152C165.317 152 161.84 148.979 161.132 145H161V143.5V136H129V117.778C138.301 114.648 145 105.856 145 95.5C145 85.1438 138.301 76.3523 129 73.2222Z" fill="#007198"/>
<path fill-rule="evenodd" clip-rule="evenodd" d="M112 136V104H120.5H122V103.868C125.979 103.16 129 99.6826 129 95.5C129 91.3174 125.979 87.8404 122 87.1319V87H120.5H112V12.7731C105.152 7.28359 96.4595 4 87 4C64.9086 4 47 21.9086 47 44C47 44.8721 47.0279 45.7377 47.0829 46.5959C28.2882 49.8723 14 66.2676 14 86C14 94.3065 16.5319 102.022 20.8662 108.416C9.07041 112.182 0.445915 123.047 0.0167652 135.987L0 136H0.0163527H48.6471C51.1231 125.675 60.4153 118 71.5 118C82.5847 118 91.8768 125.675 94.3529 136H112Z" fill="#930335"/>
<path d="M320.758 224H288.807V64.3555H320.758V224ZM377.646 224H347.254V104.768H354.602L364.621 116.346C369.52 111.893 375.049 108.479 381.209 106.104C387.443 103.654 393.938 102.43 400.691 102.43C407.965 102.43 414.83 103.84 421.287 106.66C427.744 109.406 433.385 113.229 438.209 118.127C443.033 122.951 446.818 128.629 449.564 135.16C452.385 141.617 453.795 148.52 453.795 155.867V224H423.402V155.867C423.402 152.75 422.809 149.818 421.621 147.072C420.434 144.252 418.801 141.803 416.723 139.725C414.645 137.646 412.232 136.014 409.486 134.826C406.74 133.639 403.809 133.045 400.691 133.045C397.5 133.045 394.494 133.639 391.674 134.826C388.854 136.014 386.404 137.646 384.326 139.725C382.248 141.803 380.615 144.252 379.428 147.072C378.24 149.818 377.646 152.75 377.646 155.867V224ZM579.707 128.48L557.441 150.857C556.328 147.74 554.807 144.957 552.877 142.508C550.947 139.984 548.758 137.869 546.309 136.162C543.934 134.455 541.336 133.156 538.516 132.266C535.695 131.375 532.801 130.93 529.832 130.93C525.676 130.93 521.742 131.783 518.031 133.49C514.395 135.197 511.203 137.609 508.457 140.727C505.785 143.77 503.67 147.406 502.111 151.637C500.553 155.867 499.773 160.543 499.773 165.664C499.773 169.82 500.553 173.717 502.111 177.354C503.67 180.99 505.785 184.182 508.457 186.928C511.203 189.674 514.395 191.826 518.031 193.385C521.742 194.943 525.676 195.723 529.832 195.723C532.801 195.723 535.658 195.314 538.404 194.498C541.15 193.682 543.711 192.531 546.086 191.047C548.535 189.488 550.688 187.633 552.543 185.48C554.473 183.254 556.031 180.805 557.219 178.133L579.484 200.51C576.664 204.518 573.398 208.117 569.688 211.309C566.051 214.5 562.08 217.209 557.775 219.436C553.545 221.662 549.055 223.332 544.305 224.445C539.629 225.633 534.805 226.227 529.832 226.227C521.445 226.227 513.541 224.668 506.119 221.551C498.771 218.359 492.314 214.018 486.748 208.525C481.256 203.033 476.914 196.613 473.723 189.266C470.531 181.918 468.936 174.051 468.936 165.664C468.936 156.535 470.531 148 473.723 140.059C476.914 132.117 481.256 125.215 486.748 119.352C492.314 113.414 498.771 108.738 506.119 105.324C513.541 101.91 521.445 100.203 529.832 100.203C534.805 100.203 539.666 100.834 544.416 102.096C549.24 103.357 553.805 105.213 558.109 107.662C562.488 110.037 566.496 112.969 570.133 116.457C573.844 119.945 577.035 123.953 579.707 128.48ZM625.24 224H594.625V57.3418H625.24V224ZM736.123 210.084C733.674 212.311 731.039 214.426 728.219 216.43C725.473 218.359 722.578 220.066 719.535 221.551C716.492 222.961 713.338 224.074 710.072 224.891C706.881 225.781 703.615 226.227 700.275 226.227C692.928 226.227 686.025 224.928 679.568 222.33C673.111 219.732 667.434 216.059 662.535 211.309C657.711 206.484 653.889 200.658 651.068 193.83C648.322 186.928 646.949 179.209 646.949 170.674V104.768H677.23V170.674C677.23 174.682 677.824 178.281 679.012 181.473C680.273 184.59 681.943 187.225 684.021 189.377C686.1 191.529 688.512 193.162 691.258 194.275C694.078 195.389 697.084 195.945 700.275 195.945C703.393 195.945 706.324 195.24 709.07 193.83C711.891 192.346 714.34 190.416 716.418 188.041C718.496 185.666 720.129 182.994 721.316 180.025C722.504 176.982 723.098 173.865 723.098 170.674V104.768H753.49V224H746.143L736.123 210.084ZM842.219 224H772.75V193.719H842.219C844.297 193.719 846.078 192.977 847.562 191.492C849.047 190.008 849.789 188.227 849.789 186.148C849.789 183.996 849.047 182.586 847.562 181.918C846.078 181.25 844.297 180.916 842.219 180.916H810.602C805.332 180.916 800.396 179.914 795.795 177.91C791.193 175.906 787.186 173.197 783.771 169.783C780.357 166.295 777.648 162.25 775.645 157.648C773.715 153.047 772.75 148.111 772.75 142.842C772.75 137.572 773.715 132.637 775.645 128.035C777.648 123.434 780.357 119.426 783.771 116.012C787.186 112.598 791.193 109.926 795.795 107.996C800.396 105.992 805.332 104.99 810.602 104.99H872.166V135.271H810.602C808.523 135.271 806.742 136.014 805.258 137.498C803.773 138.982 803.031 140.764 803.031 142.842C803.031 144.994 803.773 146.85 805.258 148.408C806.742 149.893 808.523 150.635 810.602 150.635H842.219C847.414 150.635 852.312 151.525 856.914 153.307C861.516 155.014 865.523 157.426 868.938 160.543C872.352 163.66 875.061 167.408 877.064 171.787C879.068 176.166 880.07 180.953 880.07 186.148C880.07 191.418 879.068 196.354 877.064 200.955C875.061 205.482 872.352 209.49 868.938 212.979C865.523 216.393 861.516 219.102 856.914 221.105C852.312 223.035 847.414 224 842.219 224ZM932.172 72.3711C932.172 75.1914 931.615 77.8262 930.502 80.2754C929.463 82.7246 928.016 84.877 926.16 86.7324C924.305 88.5137 922.115 89.9609 919.592 91.0742C917.143 92.1133 914.508 92.6328 911.688 92.6328C908.867 92.6328 906.195 92.1133 903.672 91.0742C901.223 89.9609 899.07 88.5137 897.215 86.7324C895.434 84.877 893.986 82.7246 892.873 80.2754C891.834 77.8262 891.314 75.1914 891.314 72.3711C891.314 69.625 891.834 67.0273 892.873 64.5781C893.986 62.0547 895.434 59.9023 897.215 58.1211C899.07 56.2656 901.223 54.8184 903.672 53.7793C906.195 52.666 908.867 52.1094 911.688 52.1094C914.508 52.1094 917.143 52.666 919.592 53.7793C922.115 54.8184 924.305 56.2656 926.16 58.1211C928.016 59.9023 929.463 62.0547 930.502 64.5781C931.615 67.0273 932.172 69.625 932.172 72.3711ZM926.939 224H896.324V104.768H926.939V224ZM984.051 224L938.629 104.768H973.252L999.303 179.135L1025.24 104.768H1059.98L1014.55 224H984.051ZM1183.44 224H1176.09L1164.29 207.635C1161.4 210.232 1158.32 212.682 1155.05 214.982C1151.86 217.209 1148.48 219.176 1144.92 220.883C1141.36 222.516 1137.68 223.814 1133.9 224.779C1130.19 225.744 1126.4 226.227 1122.54 226.227C1114.16 226.227 1106.25 224.816 1098.83 221.996C1091.48 219.176 1085.03 215.094 1079.46 209.75C1073.97 204.332 1069.62 197.727 1066.43 189.934C1063.24 182.141 1061.65 173.271 1061.65 163.326C1061.65 154.049 1063.24 145.551 1066.43 137.832C1069.62 130.039 1073.97 123.359 1079.46 117.793C1085.03 112.227 1091.48 107.922 1098.83 104.879C1106.25 101.762 1114.16 100.203 1122.54 100.203C1126.4 100.203 1130.22 100.686 1134.01 101.65C1137.79 102.615 1141.47 103.951 1145.03 105.658C1148.59 107.365 1151.97 109.369 1155.16 111.67C1158.43 113.971 1161.47 116.457 1164.29 119.129L1176.09 104.99H1183.44V224ZM1152.82 163.326C1152.82 159.17 1152.01 155.162 1150.38 151.303C1148.82 147.369 1146.66 143.918 1143.92 140.949C1141.17 137.906 1137.94 135.494 1134.23 133.713C1130.6 131.857 1126.7 130.93 1122.54 130.93C1118.39 130.93 1114.45 131.635 1110.74 133.045C1107.11 134.455 1103.91 136.533 1101.17 139.279C1098.5 142.025 1096.38 145.439 1094.82 149.521C1093.26 153.529 1092.48 158.131 1092.48 163.326C1092.48 168.521 1093.26 173.16 1094.82 177.242C1096.38 181.25 1098.5 184.627 1101.17 187.373C1103.91 190.119 1107.11 192.197 1110.74 193.607C1114.45 195.018 1118.39 195.723 1122.54 195.723C1126.7 195.723 1130.6 194.832 1134.23 193.051C1137.94 191.195 1141.17 188.783 1143.92 185.814C1146.66 182.771 1148.82 179.32 1150.38 175.461C1152.01 171.527 1152.82 167.482 1152.82 163.326Z" fill="black"/>
<path d="M1358.34 224H1328.05V148.297C1328.05 146.219 1327.65 144.252 1326.83 142.396C1326.09 140.541 1325.01 138.908 1323.6 137.498C1322.19 136.088 1320.56 135.012 1318.7 134.27C1316.85 133.453 1314.88 133.045 1312.8 133.045C1310.72 133.045 1308.76 133.453 1306.9 134.27C1305.12 135.012 1303.53 136.088 1302.12 137.498C1300.78 138.908 1299.7 140.541 1298.89 142.396C1298.14 144.252 1297.77 146.219 1297.77 148.297V224H1267.38V148.297C1267.38 146.219 1266.97 144.252 1266.16 142.396C1265.41 140.541 1264.34 138.908 1262.93 137.498C1261.52 136.088 1259.88 135.012 1258.03 134.27C1256.17 133.453 1254.21 133.045 1252.13 133.045C1250.05 133.045 1248.08 133.453 1246.23 134.27C1244.45 135.012 1242.85 136.088 1241.44 137.498C1240.11 138.908 1239.03 140.541 1238.21 142.396C1237.47 144.252 1237.1 146.219 1237.1 148.297V224H1206.71V104.768H1214.05L1222.29 113.896C1226.52 110.334 1231.16 107.588 1236.21 105.658C1241.33 103.654 1246.64 102.652 1252.13 102.652C1257.7 102.652 1263.11 103.691 1268.38 105.77C1273.73 107.848 1278.4 111.447 1282.41 116.568C1284.27 114.045 1286.38 111.893 1288.76 110.111C1291.13 108.33 1293.62 106.883 1296.21 105.77C1298.89 104.656 1301.63 103.877 1304.45 103.432C1307.27 102.912 1310.06 102.652 1312.8 102.652C1319.11 102.652 1325.01 103.84 1330.5 106.215C1336.07 108.59 1340.89 111.855 1344.98 116.012C1349.13 120.094 1352.4 124.918 1354.77 130.484C1357.15 136.051 1358.34 141.988 1358.34 148.297V224ZM1428.03 194.832C1429.21 195.203 1430.4 195.463 1431.59 195.611C1432.78 195.686 1433.96 195.723 1435.15 195.723C1438.12 195.723 1440.98 195.314 1443.72 194.498C1446.47 193.682 1449.03 192.531 1451.41 191.047C1453.86 189.488 1456.01 187.633 1457.86 185.48C1459.79 183.254 1461.35 180.805 1462.54 178.133L1484.8 200.51C1481.98 204.518 1478.72 208.117 1475.01 211.309C1471.37 214.5 1467.4 217.209 1463.1 219.436C1458.87 221.662 1454.38 223.332 1449.62 224.445C1444.95 225.633 1440.12 226.227 1435.15 226.227C1426.77 226.227 1418.86 224.668 1411.44 221.551C1404.09 218.434 1397.63 214.092 1392.07 208.525C1386.58 202.959 1382.23 196.354 1379.04 188.709C1375.85 180.99 1374.26 172.529 1374.26 163.326C1374.26 153.9 1375.85 145.291 1379.04 137.498C1382.23 129.705 1386.58 123.062 1392.07 117.57C1397.63 112.078 1404.09 107.811 1411.44 104.768C1418.86 101.725 1426.77 100.203 1435.15 100.203C1440.12 100.203 1444.99 100.797 1449.74 101.984C1454.49 103.172 1458.98 104.879 1463.21 107.105C1467.51 109.332 1471.52 112.078 1475.23 115.344C1478.94 118.535 1482.21 122.135 1485.03 126.143L1428.03 194.832ZM1443.61 132.154C1442.2 131.635 1440.79 131.301 1439.38 131.152C1438.05 131.004 1436.64 130.93 1435.15 130.93C1431 130.93 1427.06 131.709 1423.35 133.268C1419.71 134.752 1416.52 136.904 1413.78 139.725C1411.11 142.545 1408.99 145.959 1407.43 149.967C1405.87 153.9 1405.09 158.354 1405.09 163.326C1405.09 164.439 1405.13 165.701 1405.21 167.111C1405.35 168.521 1405.54 169.969 1405.76 171.453C1406.06 172.863 1406.39 174.236 1406.76 175.572C1407.13 176.908 1407.62 178.096 1408.21 179.135L1443.61 132.154ZM1530.78 224H1500.39V104.768H1507.74L1517.76 116.346C1522.66 111.893 1528.19 108.479 1534.35 106.104C1540.58 103.654 1547.07 102.43 1553.83 102.43C1561.1 102.43 1567.97 103.84 1574.42 106.66C1580.88 109.406 1586.52 113.229 1591.35 118.127C1596.17 122.951 1599.96 128.629 1602.7 135.16C1605.52 141.617 1606.93 148.52 1606.93 155.867V224H1576.54V155.867C1576.54 152.75 1575.95 149.818 1574.76 147.072C1573.57 144.252 1571.94 141.803 1569.86 139.725C1567.78 137.646 1565.37 136.014 1562.62 134.826C1559.88 133.639 1556.95 133.045 1553.83 133.045C1550.64 133.045 1547.63 133.639 1544.81 134.826C1541.99 136.014 1539.54 137.646 1537.46 139.725C1535.38 141.803 1533.75 144.252 1532.56 147.072C1531.38 149.818 1530.78 152.75 1530.78 155.867V224ZM1686.87 224C1679.52 224 1672.62 222.627 1666.16 219.881C1659.7 217.061 1654.02 213.238 1649.12 208.414C1644.3 203.516 1640.48 197.838 1637.66 191.381C1634.91 184.924 1633.54 178.021 1633.54 170.674V135.271H1618.73V104.99H1633.54V57.3418H1663.82V104.99H1709.91V135.271H1663.82V170.674C1663.82 173.865 1664.41 176.871 1665.6 179.691C1666.79 182.438 1668.42 184.85 1670.5 186.928C1672.58 189.006 1675.03 190.676 1677.85 191.938C1680.67 193.125 1683.67 193.719 1686.87 193.719H1709.91V224H1686.87ZM1774.48 194.832C1775.67 195.203 1776.86 195.463 1778.04 195.611C1779.23 195.686 1780.42 195.723 1781.61 195.723C1784.57 195.723 1787.43 195.314 1790.18 194.498C1792.92 193.682 1795.48 192.531 1797.86 191.047C1800.31 189.488 1802.46 187.633 1804.32 185.48C1806.25 183.254 1807.8 180.805 1808.99 178.133L1831.26 200.51C1828.44 204.518 1825.17 208.117 1821.46 211.309C1817.82 214.5 1813.85 217.209 1809.55 219.436C1805.32 221.662 1800.83 223.332 1796.08 224.445C1791.4 225.633 1786.58 226.227 1781.61 226.227C1773.22 226.227 1765.31 224.668 1757.89 221.551C1750.54 218.434 1744.09 214.092 1738.52 208.525C1733.03 202.959 1728.69 196.354 1725.5 188.709C1722.3 180.99 1720.71 172.529 1720.71 163.326C1720.71 153.9 1722.3 145.291 1725.5 137.498C1728.69 129.705 1733.03 123.062 1738.52 117.57C1744.09 112.078 1750.54 107.811 1757.89 104.768C1765.31 101.725 1773.22 100.203 1781.61 100.203C1786.58 100.203 1791.44 100.797 1796.19 101.984C1800.94 103.172 1805.43 104.879 1809.66 107.105C1813.96 109.332 1817.97 112.078 1821.68 115.344C1825.39 118.535 1828.66 122.135 1831.48 126.143L1774.48 194.832ZM1790.07 132.154C1788.66 131.635 1787.25 131.301 1785.84 131.152C1784.5 131.004 1783.09 130.93 1781.61 130.93C1777.45 130.93 1773.52 131.709 1769.8 133.268C1766.17 134.752 1762.98 136.904 1760.23 139.725C1757.56 142.545 1755.44 145.959 1753.88 149.967C1752.33 153.9 1751.55 158.354 1751.55 163.326C1751.55 164.439 1751.58 165.701 1751.66 167.111C1751.81 168.521 1751.99 169.969 1752.21 171.453C1752.51 172.863 1752.85 174.236 1753.22 175.572C1753.59 176.908 1754.07 178.096 1754.66 179.135L1790.07 132.154Z" fill="#007198"/>
</svg>
